<svg width="2560" height="360" viewBox="0 0 2560 360" fill="none" xmlns="http://www.w3.org/2000/svg">
<path d="M26.0748 5.86082L-142 354.979H-70.4094L59.651 70.7054L190.291 354.593H262.847L93.8067 5.47489L26.0748 5.86082ZM963.901 5.86082L818.21 237.449L670.01 5.86082H612.12V354.979H678.307V126.093L801.036 314.644H831.911L954.638 123.199V354.786H1020.25V5.66779L963.901 5.86082ZM1774.37 172.604C1752.09 164.733 1729.34 158.287 1706.25 153.305C1686.95 148.48 1669.97 144.427 1658.2 140.761C1647.6 137.689 1637.7 132.575 1629.06 125.707C1625.38 122.843 1622.43 119.145 1620.45 114.918C1618.47 110.691 1617.52 106.055 1617.68 101.391C1617.51 94.4593 1619.22 87.6114 1622.61 81.5666C1626.01 75.5218 1630.97 70.5032 1636.97 67.0385C1655.76 57.1135 1676.95 52.6351 1698.15 54.1082C1715.61 54.215 1732.99 56.5497 1749.86 61.0559C1767.71 65.6679 1784.89 72.5426 1801 81.5127L1823 31.1424C1805.1 20.3433 1785.54 12.5831 1765.11 8.17674C1743.13 2.77643 1720.58 0.0548407 1697.95 0.0712117C1669.64 -0.651539 1641.46 4.1331 1614.98 14.1594C1594.69 21.8519 1577.06 35.2582 1564.23 52.7573C1553.22 68.0368 1547.34 86.4167 1547.44 105.251C1546.54 125.271 1553.46 144.856 1566.73 159.867C1579.29 173.223 1594.83 183.409 1612.08 189.587C1634.7 197.409 1657.77 203.853 1681.17 208.886C1701.43 213.518 1717.44 217.764 1729.21 221.43C1739.86 224.488 1749.77 229.674 1758.35 236.676C1761.98 239.631 1764.9 243.373 1766.87 247.62C1768.84 251.866 1769.82 256.505 1769.74 261.186C1769.69 268.036 1767.76 274.741 1764.15 280.563C1760.54 286.385 1755.4 291.099 1749.28 294.187C1730.03 303.738 1708.6 308.064 1687.15 306.732C1664.4 306.647 1641.81 303.001 1620.19 295.924C1600.03 289.838 1581 280.518 1563.84 268.327L1541.07 317.732C1560.06 331.98 1581.71 342.282 1604.75 348.031C1631.92 355.804 1660.05 359.702 1688.3 359.611C1716.68 360.3 1744.91 355.517 1771.47 345.523C1791.62 338.146 1809.28 325.236 1822.42 308.276C1833.48 293.021 1839.36 274.625 1839.21 255.782C1840.09 235.997 1833.16 216.658 1819.91 201.938C1807.02 188.528 1791.16 178.346 1773.6 172.218L1774.37 172.604ZM1400.59 24.1949C1368.41 8.82422 1333.2 0.846569 1297.54 0.846569C1261.88 0.846569 1226.68 8.82422 1194.5 24.1949C1165.11 38.6764 1140.23 60.8944 1122.52 88.4604C1105.48 116.106 1096.46 147.943 1096.46 180.42C1096.46 212.897 1105.48 244.734 1122.52 272.38C1140.28 299.953 1165.14 322.223 1194.5 336.838C1226.71 352.089 1261.9 360 1297.54 360C1333.18 360 1368.38 352.089 1400.59 336.838C1429.94 322.3 1454.81 300.094 1472.57 272.572C1489.6 244.853 1498.62 212.955 1498.62 180.42C1498.62 147.885 1489.6 115.987 1472.57 88.2675C1454.69 60.5111 1429.52 38.2104 1399.82 23.8088L1400.59 24.1949ZM1411.78 243.431C1400.48 262.193 1384.18 277.431 1364.7 287.433C1343.7 297.841 1320.59 303.257 1297.16 303.257C1273.73 303.257 1250.61 297.841 1229.62 287.433C1210.14 277.431 1193.83 262.193 1182.53 243.431C1171.42 224.293 1165.56 202.553 1165.56 180.42C1165.56 158.287 1171.42 136.547 1182.53 117.409C1193.83 98.6469 1210.14 83.4087 1229.62 73.4072C1250.61 62.9987 1273.73 57.5832 1297.16 57.5832C1320.59 57.5832 1343.7 62.9987 1364.7 73.4072C1384.28 83.4815 1400.66 98.8321 1411.98 117.725C1423.3 136.618 1429.11 158.301 1428.76 180.323C1428.8 202.477 1422.65 224.201 1411.01 243.045L1411.78 243.431ZM2145.06 20.914C2118.16 10.3642 2089.43 5.24801 2060.54 5.86082H1906.17V354.979H1975.44V254.239H2059.77C2088.66 254.851 2117.39 249.735 2144.29 239.185C2166.55 230.641 2185.76 215.659 2199.48 196.149C2211.95 176.324 2218.57 153.377 2218.57 129.953C2218.57 106.529 2211.95 83.5826 2199.48 63.7577C2185.92 44.5795 2167.08 29.7601 2145.25 21.107L2145.06 20.914ZM2125.76 181.481C2105.37 194.803 2081.18 201.105 2056.87 199.43H1975.83V59.7049H2056.87C2081.17 58.1279 2105.33 64.4215 2125.76 77.653C2133.1 84.0654 2138.97 91.9721 2143 100.843C2147.03 109.713 2149.11 119.343 2149.11 129.085C2149.11 138.827 2147.03 148.456 2143 157.327C2138.97 166.197 2133.1 174.104 2125.76 180.516V181.481ZM243.744 59.7049H367.436V354.014H436.905V59.7049H560.597V4.89596H243.744V59.7049ZM2551.45 4.89596V149.059H2358.48V4.89596H2289.21V354.014H2358.48V204.447H2551.45V354.014H2621.69V5.47489L2551.45 4.89596Z" fill="#475AA8" fill-opacity="0.03"/>
</svg>
